<svg xmlns="http://www.w3.org/2000/svg" width="1200" height="630" viewBox="0 0 1200 630" fill="none">
  <rect width="1200" height="630" fill="#F7F1E3"/>
  <rect x="60" y="60" width="1080" height="510" rx="40" fill="#FFFDF8" stroke="#D9C8A9" stroke-width="2"/>
  <rect x="128" y="108" width="124" height="124" rx="34" fill="#1F6B4F" stroke="#D9C8A9" stroke-width="4"/>
  <path d="M166 206V160C166 137.909 176.745 120 190 120C203.255 120 214 137.909 214 160V206" stroke="#FFF8E8" stroke-width="10" stroke-linecap="round" stroke-linejoin="round"/>
  <path d="M176 206V170" stroke="#FFF8E8" stroke-width="10" stroke-linecap="round"/>
  <path d="M204 206V170" stroke="#FFF8E8" stroke-width="10" stroke-linecap="round"/>
  <path d="M190 164V206" stroke="#FFF8E8" stroke-width="10" stroke-linecap="round"/>
  <path d="M182 206V184C182 179.582 185.582 176 190 176C194.418 176 198 179.582 198 184V206" fill="#C89B3C" stroke="#C89B3C" stroke-width="4" stroke-linejoin="round"/>
  <path d="M190 187V222" stroke="#C89B3C" stroke-width="10" stroke-linecap="round"/>
  <path d="M162 222H218" stroke="#D9C8A9" stroke-width="6" stroke-linecap="round"/>
  <text x="120" y="340" fill="#1E293B" font-family="Arial, sans-serif" font-size="64" font-weight="700">Houma</text>
  <text x="120" y="408" fill="#6B7280" font-family="Arial, sans-serif" font-size="32">Documents, étapes et autorités locales.</text>
  <text x="120" y="470" fill="#1F6B4F" font-family="Arial, sans-serif" font-size="28">Casablanca · Rabat · Tanger</text>
</svg>
